<svg xmlns="http://www.w3.org/2000/svg" width="203.48" height="28.019" viewBox="0 0 203.48 28.019">
  <g id="Group_3925" data-name="Group 3925" transform="translate(-50.725 -61.397)">
    <path id="Path_236" data-name="Path 236" d="M63.575,67.3a1.827,1.827,0,0,0-1.847,1.521L58.142,79.978,54.558,68.854A1.848,1.848,0,0,0,52.7,67.3a1.8,1.8,0,0,0-1.971,1.79,3.281,3.281,0,0,0,.217,1.1l4.477,11.87a2.566,2.566,0,0,0,2.716,1.967,2.6,2.6,0,0,0,2.671-1.967l4.478-11.931a3.056,3.056,0,0,0,.2-1.054A1.806,1.806,0,0,0,63.575,67.3Z" transform="translate(0 -0.163)" fill="#fff"/>
    <path id="Path_237" data-name="Path 237" d="M69.926,67.3A1.884,1.884,0,0,0,67.97,69.36V81.967a1.864,1.864,0,0,0,1.956,2.06,1.889,1.889,0,0,0,1.97-2.06V69.375A1.9,1.9,0,0,0,69.926,67.3Z" transform="translate(-0.476 -0.163)" fill="#fff"/>
    <path id="Path_238" data-name="Path 238" d="M82.186,67.345a3.659,3.659,0,0,0-3.394,2.75v-.81a1.876,1.876,0,1,0-3.745,0V81.967A1.864,1.864,0,0,0,77,84.027a1.889,1.889,0,0,0,1.971-2.06V74.3c0-2.108.96-3.185,2.855-3.2a2.64,2.64,0,0,0,1.709-.515,1.667,1.667,0,0,0,.591-1.4,1.75,1.75,0,0,0-.557-1.422A2.051,2.051,0,0,0,82.186,67.345Z" transform="translate(-0.671 -0.163)" fill="#fff"/>
    <path id="Path_239" data-name="Path 239" d="M86.326,70.577v9.013c0,2.783,1.442,4.2,4.284,4.2h.151c1.784,0,2.767-.631,2.767-1.776,0-.9-.518-1.378-1.584-1.474l-.273-.03c-1.021-.085-1.419-.569-1.419-1.726v-8.2h1.637a1.536,1.536,0,1,0,0-3.069H90.252V65.482a1.964,1.964,0,1,0-3.926,0v2.027" transform="translate(-0.982 -0.056)" fill="#fff"/>
    <path id="Path_240" data-name="Path 240" d="M108.226,67.3a1.89,1.89,0,0,0-1.969,2.061v7.559c0,2.28-1.338,3.755-3.409,3.755-2.043,0-3.123-1.184-3.123-3.425V69.375A1.966,1.966,0,1,0,95.8,69.36V78c0,3.709,2.2,6.013,5.741,6.013a5.011,5.011,0,0,0,4.851-2.882v.911a1.9,1.9,0,1,0,3.791,0V69.375A1.891,1.891,0,0,0,108.226,67.3Z" transform="translate(-1.243 -0.163)" fill="#fff"/>
    <path id="Path_241" data-name="Path 241" d="M120.418,67.284c-3.074,0-5.59,1.208-6.409,3.073a2.4,2.4,0,0,0-.264,1.061,1.562,1.562,0,0,0,1.669,1.595,1.892,1.892,0,0,0,1.594-.791,3.542,3.542,0,0,1,3.261-1.823c1.8,0,2.882.948,2.882,2.537v1.055l-4.136.235c-3.961.245-6.142,1.969-6.142,4.855s2.225,4.9,5.411,4.9a5.736,5.736,0,0,0,4.956-2.666v.9a1.777,1.777,0,0,0,1.881,1.815,1.819,1.819,0,0,0,1.911-1.969V72.665C127.032,69.4,124.436,67.284,120.418,67.284Zm2.732,9.325v1.12a3.471,3.471,0,0,1-3.724,3.243c-1.6,0-2.627-.8-2.627-2.042,0-1.218,1-1.985,2.754-2.1Z" transform="translate(-1.714 -0.162)" fill="#fff"/>
    <path id="Path_242" data-name="Path 242" d="M132.413,61.4a1.89,1.89,0,0,0-1.971,2.061V81.8a1.889,1.889,0,0,0,1.971,2.06,1.864,1.864,0,0,0,1.955-2.06V63.458A1.864,1.864,0,0,0,132.413,61.4Z" transform="translate(-2.199 0)" fill="#fff"/>
    <path id="Path_243" data-name="Path 243" d="M153.159,67.538a5.449,5.449,0,0,0-5,2.874v-.9a1.921,1.921,0,1,0-3.836,0V87.524a1.865,1.865,0,0,0,1.956,2.061,1.89,1.89,0,0,0,1.97-2.061v-6.1a5.4,5.4,0,0,0,4.972,2.756c4.1,0,6.644-3.185,6.644-8.311S157.294,67.538,153.159,67.538Zm2.688,8.327c0,3.121-1.468,5.061-3.83,5.061-2.293,0-3.784-1.988-3.8-5.061.016-3.028,1.542-5.062,3.8-5.062C154.379,70.8,155.847,72.742,155.847,75.865Z" transform="translate(-2.582 -0.168)" fill="#fff"/>
    <path id="Path_244" data-name="Path 244" d="M174.937,67.492a1.89,1.89,0,0,0-1.97,2.062v7.558c0,2.281-1.338,3.754-3.409,3.754-2.044,0-3.123-1.183-3.123-3.424V69.568a1.966,1.966,0,1,0-3.926-.015v8.639c0,3.709,2.2,6.012,5.742,6.012a5.01,5.01,0,0,0,4.85-2.882v.913a1.826,1.826,0,0,0,1.911,1.985,1.8,1.8,0,0,0,1.881-1.985V69.568A1.891,1.891,0,0,0,174.937,67.492Z" transform="translate(-3.083 -0.168)" fill="#fff"/>
    <path id="Path_245" data-name="Path 245" d="M189.268,67.375a5.431,5.431,0,0,0-4.986,2.89V63.651a1.865,1.865,0,0,0-1.956-2.061,1.89,1.89,0,0,0-1.971,2.061V82.087a1.8,1.8,0,0,0,1.91,1.971,1.832,1.832,0,0,0,1.94-1.971v-.914a5.568,5.568,0,0,0,5.048,2.84c4.116,0,6.673-3.185,6.673-8.311S193.376,67.375,189.268,67.375Zm2.643,8.327c0,3.121-1.457,5.061-3.8,5.061-2.3,0-3.844-2.034-3.844-5.061s1.545-5.062,3.844-5.062C190.455,70.639,191.911,72.579,191.911,75.7Z" transform="translate(-3.576 -0.005)" fill="#fff"/>
    <path id="Path_246" data-name="Path 246" d="M200.73,61.59a1.89,1.89,0,0,0-1.97,2.061V82a1.89,1.89,0,0,0,1.97,2.062A1.865,1.865,0,0,0,202.686,82V63.651A1.865,1.865,0,0,0,200.73,61.59Z" transform="translate(-4.083 -0.005)" fill="#fff"/>
    <path id="Path_247" data-name="Path 247" d="M207.931,67.492a1.883,1.883,0,0,0-1.955,2.062V82.159a1.865,1.865,0,0,0,1.955,2.062,1.89,1.89,0,0,0,1.971-2.062V69.568A1.9,1.9,0,0,0,207.931,67.492Z" transform="translate(-4.282 -0.168)" fill="#fff"/>
    <path id="Path_248" data-name="Path 248" d="M225.312,77.829c-.815,0-1.253.292-1.809,1.2a3.53,3.53,0,0,1-3.315,2c-2.362,0-3.829-1.98-3.829-5.166S217.832,70.7,220.2,70.7a3.5,3.5,0,0,1,3.316,2.1,1.812,1.812,0,0,0,1.717,1.113,1.579,1.579,0,0,0,1.7-1.6,2.748,2.748,0,0,0-.2-.931c-.789-2.3-3.518-3.909-6.64-3.909-4.693,0-7.725,3.3-7.725,8.4,0,5.155,2.972,8.357,7.756,8.357,2.992,0,5.715-1.555,6.62-3.782a2.611,2.611,0,0,0,.232-1A1.593,1.593,0,0,0,225.312,77.829Z" transform="translate(-4.459 -0.168)" fill="#fff"/>
    <path id="Path_249" data-name="Path 249" d="M231.836,67.492a1.884,1.884,0,0,0-1.956,2.062V82.159a1.865,1.865,0,0,0,1.956,2.062,1.89,1.89,0,0,0,1.97-2.062V69.568A1.9,1.9,0,0,0,231.836,67.492Z" transform="translate(-4.942 -0.168)" fill="#fff"/>
    <path id="Path_250" data-name="Path 250" d="M245.289,74.661l-2.538-.556c-1.551-.351-2.273-.939-2.273-1.848,0-1.086,1.1-1.847,2.672-1.847a3.471,3.471,0,0,1,3.154,1.749,1.764,1.764,0,0,0,1.5.73,1.377,1.377,0,0,0,1.534-1.429,2.489,2.489,0,0,0-.078-.58c-.534-1.974-3.067-3.4-6.024-3.4-4,0-6.584,1.958-6.584,4.991,0,2.37,1.586,3.932,4.715,4.642l2.584.586c1.58.363,2.168.843,2.168,1.773,0,1.121-1.1,1.846-2.807,1.846a3.7,3.7,0,0,1-3.518-1.721,2.083,2.083,0,0,0-1.7-.953,1.542,1.542,0,0,0-1.655,1.565,2.124,2.124,0,0,0,.156.77h0a4.672,4.672,0,0,0,2.314,2.363,9.5,9.5,0,0,0,4.263.895c4.117,0,6.884-2.065,6.884-5.14C250.065,76.687,248.726,75.444,245.289,74.661Z" transform="translate(-5.123 -0.168)" fill="#fff"/>
    <path id="Path_251" data-name="Path 251" d="M252.571,70.77v9.013c0,2.784,1.442,4.195,4.284,4.195h.15c1.784,0,2.767-.631,2.767-1.775,0-.9-.519-1.378-1.584-1.475l-.274-.03c-1.019-.086-1.418-.569-1.418-1.726v-8.2h1.636a1.536,1.536,0,1,0,0-3.069H256.5V65.675a1.965,1.965,0,1,0-3.926,0V67.7" transform="translate(-5.568 -0.062)" fill="#fff"/>
  </g>
</svg>
