<svg id="Group_2734" data-name="Group 2734" xmlns="http://www.w3.org/2000/svg" width="30.003" height="30.746" viewBox="0 0 30.003 30.746">
  <path id="Path_204" data-name="Path 204" d="M29.684,23.8l-5.04,2.883,2.623,4.568-2.6,1.494-2.624-4.57v0L17,31.056V17.015ZM9.734,17a7.267,7.267,0,1,1,14.281,1.792l1.469.375A8.762,8.762,0,1,0,14.891,25.5l.365-1.47A7.26,7.26,0,0,1,9.734,17ZM17,2a14.993,14.993,0,0,0-3.61,29.547l.723-2.91a12.039,12.039,0,1,1,14.5-8.669l2.906.743A14.947,14.947,0,0,0,17,2Z" transform="translate(-1.999 -1.999)" fill="#24befb"/>
</svg>
