<svg id="menu" xmlns="http://www.w3.org/2000/svg" width="26.231" height="26.231" viewBox="0 0 26.231 26.231">
  <g id="Group_4023" data-name="Group 4023">
    <g id="Group_4022" data-name="Group 4022" transform="translate(0 0)">
      <path id="Path_387" data-name="Path 387" d="M9.057,0H3.033A3.037,3.037,0,0,0,0,3.033V9.057a3.037,3.037,0,0,0,3.033,3.033H9.057a3.037,3.037,0,0,0,3.033-3.033V3.033A3.037,3.037,0,0,0,9.057,0Zm.984,9.057a.985.985,0,0,1-.984.984H3.033a.985.985,0,0,1-.984-.984V3.033a.985.985,0,0,1,.984-.984H9.057a.985.985,0,0,1,.984.984Z" transform="translate(0 0)" fill="#8867e4"/>
    </g>
  </g>
  <g id="Group_4025" data-name="Group 4025" transform="translate(14.14 0)">
    <g id="Group_4024" data-name="Group 4024">
      <path id="Path_388" data-name="Path 388" d="M285.017,0h-5.943A3.077,3.077,0,0,0,276,3.074V9.017a3.077,3.077,0,0,0,3.074,3.074h5.943a3.077,3.077,0,0,0,3.074-3.074V3.074A3.077,3.077,0,0,0,285.017,0Zm1.025,9.017a1.026,1.026,0,0,1-1.025,1.025h-5.943a1.026,1.026,0,0,1-1.025-1.025V3.074a1.026,1.026,0,0,1,1.025-1.025h5.943a1.026,1.026,0,0,1,1.025,1.025Z" transform="translate(-276)" fill="#8867e4"/>
    </g>
  </g>
  <g id="Group_4027" data-name="Group 4027" transform="translate(0 14.14)">
    <g id="Group_4026" data-name="Group 4026">
      <path id="Path_389" data-name="Path 389" d="M9.057,276H3.033A3.037,3.037,0,0,0,0,279.033v6.024a3.037,3.037,0,0,0,3.033,3.033H9.057a3.037,3.037,0,0,0,3.033-3.033v-6.024A3.037,3.037,0,0,0,9.057,276Zm.984,9.058a.985.985,0,0,1-.984.984H3.033a.985.985,0,0,1-.984-.984v-6.024a.985.985,0,0,1,.984-.984H9.057a.985.985,0,0,1,.984.984Z" transform="translate(0 -276)" fill="#8867e4"/>
    </g>
  </g>
  <g id="Group_4029" data-name="Group 4029" transform="translate(14.14 14.14)">
    <g id="Group_4028" data-name="Group 4028">
      <path id="Path_390" data-name="Path 390" d="M285.017,276h-5.943A3.077,3.077,0,0,0,276,279.074v5.943a3.077,3.077,0,0,0,3.074,3.074h5.943a3.077,3.077,0,0,0,3.074-3.074v-5.943A3.077,3.077,0,0,0,285.017,276Zm1.025,9.017a1.026,1.026,0,0,1-1.025,1.025h-5.943a1.026,1.026,0,0,1-1.025-1.025v-5.943a1.026,1.026,0,0,1,1.025-1.025h5.943a1.026,1.026,0,0,1,1.025,1.025Z" transform="translate(-276 -276)" fill="#8867e4"/>
    </g>
  </g>
</svg>
