<?xml version="1.0" encoding="utf-8"?>
<!-- Generator: Adobe Illustrator 23.0.3, SVG Export Plug-In . SVG Version: 6.00 Build 0)  -->
<svg version="1.1" id="close_icon" xmlns="http://www.w3.org/2000/svg" xmlns:xlink="http://www.w3.org/1999/xlink" x="0px" y="0px"
	 viewBox="0 0 24 24" style="enable-background:new 0 0 24 24;" xml:space="preserve">
<style type="text/css">
	.st0{fill:#FFFFFF;}
</style>
<path id="close_path" class="st0" d="M19.7,18.3L13.3,12l6.3-6.4c0.4-0.4,0.4-1,0.1-1.4c-0.4-0.4-1-0.4-1.4-0.1c0,0,0,0-0.1,0.1
	l-6.3,6.4L5.5,4.3c-0.4-0.4-1-0.4-1.4-0.1S3.7,5.2,4,5.6c0,0,0,0,0.1,0.1l6.4,6.3l-6.3,6.4c-0.4,0.4-0.4,1-0.1,1.4
	c0.4,0.4,1,0.4,1.4,0.1c0,0,0,0,0.1-0.1l6.3-6.4l6.4,6.3c0.4,0.4,1,0.4,1.4,0.1C20.2,19.4,20.2,18.7,19.7,18.3
	C19.8,18.3,19.8,18.3,19.7,18.3L19.7,18.3z"/>
</svg>
