<svg xmlns="http://www.w3.org/2000/svg" width="24.439" height="26.592" viewBox="0 0 24.439 26.592">
  <path id="Shape" d="M23.557,12.911A17.931,17.931,0,0,1,19.43,9.824a64.4,64.4,0,0,0,1.41-7.953c.071-.625-.248-.827-.348-.873a.6.6,0,0,0-.757.273C17.553,4.112,14.564,3.788,11.4,3.443,8.21,3.1,4.92,2.744,2.48,5.792a1.3,1.3,0,0,0-1.429-.5L1,5.306A1.5,1.5,0,0,0,.051,7.132L4.92,26.093a1.19,1.19,0,0,0,1.124.93,1.089,1.089,0,0,0,.316-.047l.426-.13h0a1.19,1.19,0,0,0,.7-.6,1.371,1.371,0,0,0,.107-.966L6.089,19.406c2.2-3.073,5.256-2.748,8.493-2.4s6.574.714,9.028-2.479v0a1.546,1.546,0,0,0,.272-1.164.632.632,0,0,0-.326-.455ZM6.794,25.82a.374.374,0,0,1-.223.191l-.426.129a.369.369,0,0,1-.457-.28L.819,6.9a.624.624,0,0,1,.392-.756l.055-.017A.515.515,0,0,1,1.417,6.1a.575.575,0,0,1,.544.449L2,6.72H2L4.5,16.432l2.331,9.081A.434.434,0,0,1,6.794,25.82ZM23,13.975c-2.183,2.841-5.172,2.516-8.336,2.172s-6.4-.7-8.835,2.238L3.648,9.9,2.825,6.694c2.2-3.073,5.255-2.739,8.5-2.387,3.076.334,6.252.68,8.668-2.044A62.7,62.7,0,0,1,18.66,9.6a.9.9,0,0,0,.232.861,19.09,19.09,0,0,0,4.218,3.182.685.685,0,0,1-.113.333Z" transform="translate(0.282 -0.682)" fill="#fff" stroke="#fff" stroke-width="0.5"/>
</svg>
