<svg xmlns="http://www.w3.org/2000/svg" width="36" height="36" viewBox="0 0 36 36">
  <g id="Group_2793" data-name="Group 2793" transform="translate(-9.052 -9.052)">
    <rect id="messages_container" data-name="messages container" width="36" height="36" transform="translate(9.052 9.052)" fill="none"/>
    <path id="messages_path" data-name="messages path" d="M-112.442,31.783H-134.53a4.005,4.005,0,0,0-3.983,3.987V52.337a4.006,4.006,0,0,0,3.987,3.984h22.087a4.006,4.006,0,0,0,3.984-3.987V35.767A4.006,4.006,0,0,0-112.442,31.783Zm-22.081,2.453h22.078a1.542,1.542,0,0,1,1.421.976l-12.461,8.723-12.459-8.723A1.542,1.542,0,0,1-134.523,34.236Zm22.081,19.631h-22.081a1.545,1.545,0,0,1-1.537-1.533V38.127l11.873,8.311a1.224,1.224,0,0,0,.7.222,1.226,1.226,0,0,0,.7-.222l11.873-8.311v14.2A1.545,1.545,0,0,1-112.442,53.867Z" transform="translate(150.513 -16.783)" fill="#66e3ac"/>
  </g>
</svg>
